# xmcd
#
# Track frame offsets:
#	150
#	13792
#	29806
#	43861
#	58043
#	68716
#	81782
#	93263
#	118834
#	135222
#
# Disc length: 2011 seconds
#
# Revision: 1
# Processed by: cddbd v1.5.2PL0 Copyright (c) Steve Scherf et al.
# Submitted via: EasyCDDAExtractor 5.0.6
#
DISCID=8407d90a
DTITLE=Double Trouble - Nashville 1978
DYEAR=1978
DGENRE=Blues
TTITLE0=You can have my husband
TTITLE1=Rude mood
TTITLE2=Pride and joy
TTITLE3=Oh, yeah
TTITLE4=Love struck baby
TTITLE5=Ti-ni-nee-ni-nu
TTITLE6=Gonna miss me
TTITLE7=I wonder why
TTITLE8=I'm crying
TTITLE9=Sugar coted Loving
EXTD=
EXTT0=
EXTT1=
EXTT2=
EXTT3=
EXTT4=
EXTT5=
EXTT6=
EXTT7=
EXTT8=
EXTT9=
PLAYORDER=
